<svg version="1.0" xmlns="http://www.w3.org/2000/svg"
 width="1599.000000pt" height="524.000000pt" viewBox="0 0 1599.000000 524.000000"
 preserveAspectRatio="xMidYMid meet">

<g transform="translate(0.000000,524.000000) scale(0.100000,-0.100000)"
fill="#000000" stroke="none">
<path d="M0 2620 l0 -2620 7995 0 7995 0 0 2620 0 2620 -7995 0 -7995 0 0
-2620z m3574 567 c26 -19 18 -61 -12 -65 -44 -7 -67 32 -36 62 19 19 25 20 48
3z m400 -36 c25 -28 5 -63 -32 -59 -30 3 -42 39 -22 64 17 19 34 18 54 -5z
m-576 -4 c6 -7 15 -32 21 -56 5 -23 16 -50 25 -60 23 -26 20 -60 -6 -70 -25
-9 -58 3 -58 20 0 6 -9 22 -19 36 -26 32 -38 108 -21 128 15 18 44 19 58 2z
m376 -3 c20 -19 20 -26 2 -68 -16 -39 -28 -48 -50 -40 -29 11 -37 39 -22 76
23 53 41 62 70 32z m-678 -91 c40 -44 50 -69 34 -88 -22 -26 -57 -17 -89 22
-35 42 -40 77 -13 92 26 16 32 14 68 -26z m1044 -49 c0 -8 -12 -31 -27 -50
-30 -36 -62 -44 -82 -20 -16 19 -3 44 39 80 25 21 35 24 51 16 10 -6 19 -18
19 -26z m-419 -4 c10 -6 19 -16 19 -23 0 -7 14 -18 30 -24 32 -12 40 -39 18
-61 -18 -18 -45 -14 -62 9 -8 12 -25 27 -38 33 -29 14 -34 39 -13 60 19 19 21
19 46 6z m179 -20 c16 -31 -4 -62 -38 -58 -21 2 -28 9 -30 32 -5 45 47 65 68
26z m-276 -3 c21 -16 18 -45 -6 -61 -35 -22 -74 27 -48 59 15 18 31 19 54 2z
m380 -33 c22 -21 20 -40 -6 -58 -15 -11 -26 -12 -40 -5 -23 12 -24 55 0 68 23
14 28 14 46 -5z m3866 -544 l0 -510 -85 0 c-76 0 -85 2 -85 19 0 17 -3 17 -47
-6 -42 -21 -59 -24 -128 -21 -181 9 -305 131 -313 310 -5 89 10 144 58 212 85
124 275 174 388 102 l42 -26 0 215 0 215 85 0 85 0 0 -510z m-4396 484 c16
-42 -16 -74 -54 -54 -19 10 -27 49 -13 63 13 13 61 7 67 -9z m746 2 c19 -23 8
-61 -18 -64 -44 -7 -67 32 -36 62 19 20 38 20 54 2z m-900 -26 c8 -14 8 -26 0
-40 -18 -33 -70 -23 -70 14 0 45 50 63 70 26z m1960 -161 c75 -102 136 -177
141 -172 5 5 64 85 132 178 l123 170 92 3 92 3 0 -496 0 -495 -95 0 -95 0 -2
326 -3 325 -124 -170 c-69 -94 -126 -171 -127 -171 -2 0 -58 77 -126 170
l-123 170 -3 -325 -2 -325 -95 0 -95 0 0 495 0 495 89 0 89 0 132 -181z m3022
-154 c70 -181 129 -334 130 -339 2 -5 63 144 135 330 l130 339 102 3 c55 1
101 1 101 0 0 -2 -85 -224 -188 -493 l-189 -490 -85 -3 -86 -3 -17 43 c-9 24
-93 241 -187 483 -94 242 -172 446 -175 453 -4 10 17 12 98 10 l104 -3 127
-330z m-5372 312 c29 -14 37 -48 17 -66 -20 -16 -95 -3 -119 21 -44 44 35 79
102 45z m724 -3 c19 -18 19 -20 6 -45 -6 -10 -21 -19 -34 -19 -15 0 -27 -9
-34 -26 -14 -29 -48 -30 -66 -1 -14 22 3 51 32 55 11 2 28 14 36 28 19 28 38
31 60 8z m150 0 c18 -17 21 -50 6 -59 -7 -4 -5 -14 5 -28 21 -31 19 -46 -10
-59 -21 -10 -29 -9 -43 5 -14 14 -14 22 -5 47 6 17 7 30 2 30 -5 0 -12 12 -15
27 -5 19 -2 30 11 40 24 17 30 16 49 -3z m196 -38 c19 -23 8 -61 -18 -64 -45
-7 -72 46 -34 67 24 14 38 13 52 -3z m2229 -11 c36 -18 64 -76 56 -115 -3 -16
-18 -40 -32 -54 -46 -46 -98 -46 -150 -2 -24 21 -28 32 -28 74 0 89 76 138
154 97z m-2911 -63 c-2 -22 -8 -27 -32 -27 -17 0 -33 7 -40 18 -9 15 -7 22 12
37 32 26 65 11 60 -28z m797 26 c22 -17 39 -21 77 -19 52 3 78 -10 78 -39 0
-27 -21 -39 -82 -46 -54 -6 -58 -5 -102 32 -51 42 -54 49 -29 76 21 23 24 23
58 -4z m6443 -115 l3 -122 87 -3 87 -3 3 -72 3 -73 -91 0 -90 0 0 -142 c0 -79
5 -150 10 -158 6 -10 33 -17 87 -20 l77 -5 23 -75 c13 -41 23 -79 23 -84 0 -4
-53 -7 -117 -5 -107 4 -122 7 -164 31 -25 15 -59 46 -75 70 -29 43 -29 44 -32
216 l-3 172 -45 0 -44 0 0 75 0 75 45 0 45 0 0 125 0 126 83 -3 82 -3 3 -122z
m-7448 103 c16 -21 9 -60 -13 -64 -51 -10 -94 31 -67 63 16 19 64 19 80 1z
m400 -50 c6 -8 10 -25 8 -38 -4 -30 -46 -38 -65 -12 -17 23 -16 29 3 48 19 20
38 20 54 2z m204 -8 c8 -13 8 -23 0 -35 -16 -26 -51 -28 -64 -4 -25 47 36 83
64 39z m-886 0 c35 -35 -11 -79 -65 -61 -28 10 -39 32 -29 59 7 17 77 19 94 2z
m1073 -4 c10 -13 10 -21 -3 -47 -9 -18 -24 -54 -33 -82 -10 -27 -24 -60 -31
-72 -18 -29 -60 -31 -69 -4 -6 19 40 146 56 157 5 3 9 13 9 23 0 38 46 55 71
25z m-491 -9 c26 -32 -13 -81 -47 -59 -35 22 -23 74 17 74 10 0 23 -7 30 -15z
m620 -25 c8 -14 8 -26 0 -40 -18 -33 -70 -23 -70 14 0 45 50 63 70 26z m-451
-28 c12 -22 -11 -62 -34 -62 -8 0 -21 10 -29 22 -20 28 -4 58 29 58 13 0 29
-8 34 -18z m822 -3 c9 -18 7 -25 -10 -43 -17 -16 -25 -18 -39 -10 -19 12 -27
37 -18 60 8 22 54 17 67 -7z m-1137 5 c19 -7 21 -45 4 -62 -32 -32 -80 8 -58
48 11 21 27 25 54 14z m881 -33 c12 -40 -20 -70 -56 -51 -18 10 -26 50 -12 63
14 15 62 7 68 -12z m-142 -33 c14 -41 -52 -67 -73 -28 -15 28 22 65 49 50 11
-5 21 -15 24 -22z m-275 -9 c4 -31 -20 -53 -47 -44 -47 15 -31 79 18 73 20 -2
27 -9 29 -29z m-228 -4 c26 -32 -13 -81 -47 -59 -35 22 -23 74 17 74 10 0 23
-7 30 -15z m8543 -12 c2 -5 -5 -45 -16 -90 -18 -79 -21 -83 -47 -83 -42 0
-111 -41 -131 -80 -17 -30 -19 -59 -19 -217 l0 -183 -90 0 -90 0 0 320 0 320
90 0 c90 0 90 0 90 -25 l0 -26 29 22 c46 34 173 62 184 42z m484 -31 c96 -50
173 -176 173 -287 l0 -55 -231 0 -230 0 6 -22 c15 -49 49 -91 89 -109 55 -25
65 -24 131 11 l57 30 37 -29 c20 -16 45 -39 56 -51 l20 -22 -35 -29 c-50 -41
-133 -70 -202 -70 -125 -1 -222 61 -280 179 -30 60 -33 75 -33 152 0 96 26
166 83 231 86 98 244 129 359 71z m-5601 -5 c65 -33 128 -104 151 -170 15 -43
18 -85 18 -247 l0 -195 -87 -3 -88 -3 -1 178 c0 110 -5 191 -12 213 -25 72
-125 103 -195 60 -54 -33 -62 -66 -62 -270 l0 -180 -85 0 -85 0 0 58 c-1 175
-1 494 0 535 l0 47 85 0 c77 0 85 -2 85 -19 0 -19 2 -18 43 5 36 22 51 25 112
21 50 -3 85 -11 121 -30z m2374 5 c84 -44 136 -108 164 -202 9 -30 16 -71 16
-92 l0 -38 -231 0 -231 0 6 -32 c9 -44 52 -97 94 -115 43 -18 88 -11 136 22
20 14 40 25 44 25 4 -1 32 -23 62 -50 l54 -49 -24 -21 c-14 -11 -47 -33 -75
-48 -44 -24 -61 -27 -145 -27 -85 0 -100 3 -141 27 -58 34 -116 98 -142 157
-28 63 -34 172 -13 244 26 91 109 182 192 213 60 22 178 14 234 -14z m700 13
c77 -27 136 -80 172 -153 l33 -66 3 -208 3 -208 -90 0 -91 0 0 180 c0 204 -8
237 -62 270 -19 12 -51 20 -76 20 -34 0 -49 -6 -80 -34 l-37 -34 -5 -199 -5
-198 -87 -3 -88 -3 0 321 0 320 85 0 c64 0 86 -4 92 -15 8 -13 14 -12 48 5 47
24 125 26 185 5z m3157 -20 c32 -14 68 -35 80 -47 l22 -21 -47 -53 c-26 -30
-50 -54 -54 -54 -4 0 -24 11 -44 25 -55 38 -164 32 -164 -9 0 -23 23 -34 125
-61 60 -15 112 -36 133 -52 40 -30 71 -93 72 -143 0 -84 -84 -179 -176 -198
-91 -20 -234 20 -313 88 l-23 20 52 60 52 60 32 -26 c62 -53 148 -70 194 -38
49 34 25 57 -100 90 -113 30 -159 59 -187 116 -25 52 -27 95 -6 146 52 122
205 165 352 97z m-10262 -5 c14 -23 -7 -48 -50 -60 -54 -15 -75 -8 -75 24 0
20 9 29 43 44 41 19 67 16 82 -8z m170 0 c8 -24 -3 -47 -24 -53 -27 -7 -51 11
-51 38 0 42 62 55 75 15z m183 1 c7 -47 -59 -64 -73 -19 -9 26 13 50 44 46 19
-2 27 -10 29 -27z m3022 -291 l0 -320 -90 0 -90 0 0 320 0 320 90 0 90 0 0
-320z m4800 123 c0 -179 2 -201 20 -230 40 -66 145 -66 194 0 19 26 21 43 24
228 l3 199 90 0 91 0 -4 -212 c-3 -197 -5 -217 -26 -263 -93 -203 -362 -242
-506 -74 -59 69 -66 106 -66 341 l0 208 90 0 90 0 0 -197z m-7036 164 c29 -21
15 -50 -37 -75 -38 -17 -52 -20 -68 -11 -30 15 -22 63 11 67 13 2 33 10 44 18
25 17 28 17 50 1z m-423 -13 c21 -25 -8 -69 -45 -69 -40 0 -54 26 -33 59 20
30 57 35 78 10z m707 -5 c15 -6 22 -17 22 -33 0 -31 -28 -48 -68 -40 -26 5
-30 3 -35 -25 -5 -25 -12 -31 -31 -31 -15 0 -32 -10 -44 -27 -18 -25 -22 -26
-46 -15 -43 19 -28 72 20 72 27 0 34 24 19 63 -15 43 13 60 85 51 30 -4 65
-10 78 -15z m-927 -30 c26 -37 17 -62 -24 -67 -22 -3 -30 3 -43 32 -14 29 -15
38 -4 51 20 24 47 18 71 -16z m313 -25 c28 -11 19 -52 -16 -74 -51 -31 -79
-36 -94 -15 -18 24 -3 50 44 74 42 23 44 23 66 15z m-490 -70 c19 -19 20 -25
3 -48 -19 -26 -61 -18 -65 12 -7 44 32 67 62 36z m226 -3 c5 -11 7 -26 4 -35
-8 -21 -42 -30 -59 -16 -15 13 -20 51 -8 63 13 14 53 6 63 -12z m478 -3 c9 -9
15 -9 24 0 20 20 48 14 60 -13 19 -41 -28 -75 -60 -43 -10 10 -17 10 -33 0
-39 -25 -80 9 -59 49 12 21 50 25 68 7z m-1124 -25 c6 -15 -7 -47 -32 -75 -34
-40 -97 -4 -72 41 27 51 90 71 104 34z m1597 -13 c39 -21 13 -75 -33 -68 -26
3 -37 41 -18 64 15 17 25 18 51 4z m-621 -35 c14 -17 5 -51 -16 -59 -35 -13
-73 41 -47 67 12 12 50 7 63 -8z m-744 -3 c29 -19 22 -42 -23 -82 -58 -51 -98
-53 -98 -6 0 24 9 37 43 63 44 34 59 38 78 25z m1130 -22 c46 -20 59 -42 44
-71 -14 -25 -28 -24 -95 6 -63 27 -75 47 -50 76 20 21 28 20 101 -11z m-622
-3 c11 -8 17 -23 14 -38 -2 -19 -9 -24 -32 -24 -40 0 -56 27 -32 54 22 25 26
25 50 8z m326 -21 c6 -8 10 -25 8 -38 -4 -30 -46 -38 -65 -12 -17 23 -16 29 3
48 19 20 38 20 54 2z m-580 -26 c22 -40 -26 -80 -58 -48 -16 16 -15 55 1 61
26 11 47 6 57 -13z m704 -6 c19 -19 20 -25 3 -48 -19 -26 -61 -18 -65 12 -7
44 32 67 62 36z m-256 -25 c2 -18 -7 -36 -28 -59 -28 -30 -32 -31 -53 -17 -31
21 -32 40 -1 76 34 41 77 41 82 0z m-278 -33 c20 -25 8 -61 -22 -64 -37 -4
-57 31 -32 59 20 23 37 24 54 5z m480 -11 c26 -32 -13 -81 -47 -59 -24 15 -27
38 -8 58 20 20 39 20 55 1z m215 -14 c12 -40 -20 -70 -56 -51 -18 10 -26 50
-12 63 14 15 62 7 68 -12z m-527 -32 c4 -31 -20 -53 -47 -44 -45 14 -30 79 17
73 21 -2 28 -9 30 -29z m700 9 c6 -6 12 -18 12 -27 0 -43 -59 -56 -84 -19 -20
28 -20 33 0 53 16 16 46 13 72 -7z m-1264 -31 c26 -19 18 -61 -12 -65 -44 -7
-67 32 -36 62 19 19 25 20 48 3z m806 -1 c19 -23 8 -61 -18 -64 -44 -7 -67 32
-36 62 19 20 38 20 54 2z m140 -3 c42 -27 80 -66 80 -80 0 -26 -50 -93 -70
-93 -22 0 -43 32 -34 54 3 8 -6 30 -20 49 -30 39 -32 50 -10 71 19 20 24 20
54 -1z m-1082 -22 c3 -15 -6 -33 -24 -52 -30 -31 -53 -36 -72 -17 -18 18 -15
33 14 68 33 38 77 39 82 1z m331 -45 c9 -11 9 -25 1 -55 -16 -61 -53 -89 -78
-58 -17 21 -17 40 1 85 13 33 22 42 41 42 13 0 29 -6 35 -14z m421 -21 c26
-32 -13 -81 -47 -59 -35 22 -23 74 17 74 10 0 23 -7 30 -15z m-250 -40 c26
-32 -13 -81 -47 -59 -35 22 -23 74 17 74 10 0 23 -7 30 -15z m121 -17 c7 -13
9 -43 6 -76 -7 -66 -29 -86 -67 -62 -19 12 -20 120 -1 143 19 23 48 21 62 -5z
m314 -85 c41 -75 39 -98 -11 -98 -26 0 -33 8 -64 66 -29 57 -32 69 -21 83 29
35 57 20 96 -51z m300 2 c30 -29 32 -60 7 -74 -38 -21 -110 52 -87 88 11 19
55 12 80 -14z m-1111 -7 c21 -30 4 -60 -32 -56 -34 4 -44 45 -16 65 24 18 30
17 48 -9z m311 -124 c18 -18 14 -76 -9 -124 -15 -33 -51 -38 -66 -10 -15 28
-2 108 21 131 23 23 33 24 54 3z m283 -26 c22 -22 14 -57 -14 -64 -38 -10 -61
17 -46 51 12 27 40 33 60 13z m140 -51 c22 -26 25 -67 7 -87 -22 -24 -29 -25
-49 -4 -26 25 -31 62 -11 84 21 23 38 25 53 7z"/>
<path d="M7504 2370 c-105 -23 -156 -149 -99 -247 30 -51 71 -75 129 -75 57 0
87 14 124 56 101 116 -4 298 -154 266z"/>
<path d="M12334 2380 c-11 -4 -35 -25 -54 -46 l-34 -39 138 -3 c77 -1 141 -1
143 2 9 9 -30 56 -62 76 -33 21 -93 25 -131 10z"/>
<path d="M9093 2370 c-18 -10 -39 -33 -48 -50 l-16 -30 141 0 c134 0 140 1
131 19 -6 10 -26 32 -46 50 -29 25 -44 31 -83 31 -29 0 -59 -8 -79 -20z"/>
</g>
</svg>
